<svg xmlns="http://www.w3.org/2000/svg" fill="none" viewBox="0 0 48 48"><style>@media (prefers-color-scheme:dark){path{fill:#fff}path+path{fill:transparent}}</style><path fill="#003594" d="M39.442 37.454C46.882 27.85 45.116 14.039 35.5 6.6 25.884-.838 12.044.934 4.604 10.537c-7.44 9.603-5.675 23.415 3.942 30.853a22.027 22.027 0 0 0 9.931 4.312 21.74 21.74 0 0 0 3.567.298H48l-8.558-8.546Zm-6.067-13.335-16.553 9.552a.262.262 0 0 1-.35-.103.234.234 0 0 1-.025-.11V14.363c0-.145.12-.256.264-.247.043 0 .077.008.111.025l16.553 9.543a.26.26 0 0 1 .086.35c-.026.034-.052.068-.086.085Z"/><path fill="#fff" d="m33.375 24.12-16.553 9.55a.262.262 0 0 1-.35-.102.234.234 0 0 1-.025-.11V14.363c0-.145.12-.256.264-.247.043 0 .077.008.111.025l16.553 9.543a.26.26 0 0 1 .086.35c-.026.034-.052.068-.086.085Z"/></svg>
